# xmcd CD database file
#
# Track frame offsets:
#	150
#	25220
#	35777
#
# Disc length: 807 seconds
#
# Revision: 3
# Processed by: cddbd v1.5.2PL0 Copyright (c) Steve Scherf et al.
# Submitted via: CDex 1.70beta3
#
DISCID=20032503
DTITLE=山崎まさよし - One more time, One more chance 「秒速5センチメートル」 Special Edition
DYEAR=2007
DGENRE=Anime
TTITLE0=One more time, One more chance
TTITLE1=雪の駅 -One more time, One more chance- (from 「秒速5センチメートル」 Sound...)
TTITLE2=One more time, One more chance (弾き語りVer.)
EXTD=YEAR: 2007
EXTT0=
EXTT1=
EXTT2=
PLAYORDER=
